<svg width="70" height="71" viewBox="0 0 70 71" fill="none" xmlns="http://www.w3.org/2000/svg">
<path d="M35 60.6801C48.8071 60.6801 60 49.4872 60 35.6801C60 21.8729 48.8071 10.6801 35 10.6801C21.1929 10.6801 10 21.8729 10 35.6801C10 49.4872 21.1929 60.6801 35 60.6801Z" fill="#F1F1EA" fill-opacity="0.5"/>
<path d="M35 45.6801L45 35.6801L35 25.6801" fill="#F1F1EA" fill-opacity="0.5"/>
<path d="M35 45.6801L45 35.6801M45 35.6801L35 25.6801M45 35.6801H25M60 35.6801C60 49.4872 48.8071 60.6801 35 60.6801C21.1929 60.6801 10 49.4872 10 35.6801C10 21.8729 21.1929 10.6801 35 10.6801C48.8071 10.6801 60 21.8729 60 35.6801Z" stroke="white" stroke-linecap="round" stroke-linejoin="round"/>
</svg>
