<svg width="19" height="20" viewBox="0 0 19 20" fill="none" xmlns="http://www.w3.org/2000/svg">
<path d="M17.2283 5.07929C17.2073 4.75256 16.937 4.49843 16.6095 4.49843H13.33V3.52952C13.33 1.58928 11.4898 0.0104675 9.2285 0.0104675C6.96718 0.0104675 5.12697 1.58928 5.12697 3.52952V4.49843H1.84753C1.51998 4.49843 1.24972 4.75256 1.22875 5.07929L0.34858 19.1789C0.338092 19.3499 0.398599 19.5169 0.515578 19.642C0.632557 19.7662 0.796328 19.8372 0.967359 19.8372H17.4896C17.6607 19.8372 17.8244 19.7662 17.9414 19.642C18.0584 19.5169 18.1189 19.3499 18.1084 19.1789L17.2283 5.07929ZM6.36615 3.52952C6.36615 2.2726 7.65049 1.24964 9.2285 1.24964C10.8065 1.24964 12.0909 2.2726 12.0909 3.52952V4.49843H6.36615V3.52952ZM5.12697 5.7376V7.08326C5.12697 7.42533 5.4045 7.70285 5.74656 7.70285C6.08862 7.70285 6.36615 7.42533 6.36615 7.08326V5.7376H12.0909V7.08326C12.0909 7.42533 12.3684 7.70285 12.7104 7.70285C13.0525 7.70285 13.33 7.42533 13.33 7.08326V5.7376H16.027L16.5638 14.3295H1.89316L2.43 5.7376H5.12697ZM1.62648 18.598L1.84158 15.1556H16.6154L16.8305 18.598H1.62648Z" fill="#67BD11"/>
</svg>
