<svg width="23" height="25" viewBox="0 0 23 25" fill="none" xmlns="http://www.w3.org/2000/svg">
<path d="M21.5561 6.41019C21.5298 5.99947 21.19 5.68003 20.7783 5.68003H16.6559V4.46206C16.6559 2.0231 14.3427 0.0384617 11.5001 0.0384617C8.65751 0.0384617 6.3443 2.0231 6.3443 4.46206V5.68003H2.22189C1.81016 5.68003 1.47042 5.99947 1.44406 6.41019L0.33765 24.134C0.324466 24.349 0.400525 24.5589 0.547573 24.7161C0.694621 24.8723 0.900488 24.9615 1.11548 24.9615H21.8847C22.0997 24.9615 22.3056 24.8723 22.4526 24.7161C22.5997 24.5589 22.6757 24.349 22.6625 24.134L21.5561 6.41019ZM7.90199 4.46206C7.90199 2.88206 9.51647 1.59615 11.5001 1.59615C13.4837 1.59615 15.0982 2.88206 15.0982 4.46206V5.68003H7.90199V4.46206ZM6.3443 7.23772V8.92927C6.3443 9.35926 6.69316 9.70812 7.12314 9.70812C7.55313 9.70812 7.90199 9.35926 7.90199 8.92927V7.23772H15.0982V8.92927C15.0982 9.35926 15.4471 9.70812 15.877 9.70812C16.307 9.70812 16.6559 9.35926 16.6559 8.92927V7.23772H20.0461L20.7209 18.0381H2.27925L2.95409 7.23772H6.3443ZM1.94402 23.4038L2.21441 19.0766H20.7858L21.0562 23.4038H1.94402Z" fill="#1F2724"/>
</svg>
