<svg width="27" height="28" viewBox="0 0 27 28" fill="none" xmlns="http://www.w3.org/2000/svg">
<path d="M26.7642 25.6409L20.2028 19.0795C21.9629 17.056 23.0285 14.4158 23.0285 11.5302C23.0285 5.17836 17.862 0.0178299 11.5161 0.0178299C5.16419 0.0178299 0.00366211 5.18435 0.00366211 11.5302C0.00366211 17.8761 5.17018 23.0427 11.5161 23.0427C14.4017 23.0427 17.0418 21.977 19.0653 20.2169L25.6267 26.7784C25.7824 26.934 25.9919 27.0178 26.1955 27.0178C26.399 27.0178 26.6085 26.94 26.7642 26.7784C27.0755 26.4671 27.0755 25.9522 26.7642 25.6409ZM1.61408 11.5302C1.61408 6.07038 6.05621 1.63424 11.5101 1.63424C16.97 1.63424 21.4061 6.07637 21.4061 11.5302C21.4061 16.9841 16.97 21.4322 11.5101 21.4322C6.05621 21.4322 1.61408 16.9901 1.61408 11.5302Z" fill="#1F2724"/>
</svg>
